<svg width="65" height="64" viewBox="0 0 65 64" fill="none" xmlns="http://www.w3.org/2000/svg">
<path d="M32.0064 59.0192C17.0871 59.0192 4.98917 46.9212 4.98917 31.998C4.98917 17.0788 17.0871 4.98081 32.0064 4.98081C46.9296 4.98081 59.0276 17.0788 59.0276 31.998C59.0276 46.9212 46.9296 59.0192 32.0064 59.0192ZM32.0064 4C16.544 4 4.00446 16.5356 4.00446 31.998C4.00446 47.4644 16.544 60 32.0064 60C47.4727 60 60.0084 47.4644 60.0084 31.998C60.0084 16.5356 47.4727 4 32.0064 4Z" fill="black"/>
<path d="M32.0064 56.5613C18.4431 56.5613 7.44709 45.5652 7.44709 32.0019C7.44709 18.4347 18.4431 7.43866 32.0064 7.43866C45.5737 7.43866 56.5697 18.4347 56.5697 32.0019C56.5697 45.5652 45.5737 56.5613 32.0064 56.5613ZM32.0064 4.98077C17.0872 4.98077 4.9892 17.0787 4.9892 32.0019C4.9892 46.9212 17.0872 59.0192 32.0064 59.0192C46.9296 59.0192 59.0276 46.9212 59.0276 32.0019C59.0276 17.0787 46.9296 4.98077 32.0064 4.98077Z" fill="white"/>
<path d="M32.0064 7.43872C18.4431 7.43872 7.44708 18.4347 7.44708 31.9981C7.44708 45.5653 18.4431 56.5613 32.0064 56.5613C45.5737 56.5613 56.5697 45.5653 56.5697 31.9981C56.5697 18.4347 45.5737 7.43872 32.0064 7.43872Z" fill="#EE7817"/>
<path d="M26.5358 21.8656V41.517H22.9564V30.2787C22.9564 28.4148 22.9564 27.8638 21.3543 27.8638H18.1501V25.6208H18.5291C20.3657 25.5896 22.8392 25.5622 23.6286 21.8656H26.5358Z" fill="white"/>
<path d="M43.1314 38.4925V41.5209H29.7635V38.6957C32.2683 36.9763 34.7457 34.6161 35.9102 33.4243C36.9848 32.3185 38.7901 30.4272 38.7901 27.8325C38.7901 26.3203 38.0359 24.894 36.1993 24.894C33.3155 24.894 33.4054 28.0357 33.4327 29.4346L29.7635 29.1142C29.7635 26.3476 30.6661 24.5736 31.4242 23.6709C32.5027 22.4166 34.3667 21.5452 36.4924 21.5452C40.2163 21.5452 42.811 23.9601 42.811 27.6879C42.811 30.8609 40.8611 33.1351 38.7041 35.085C38.2665 35.4641 35.6484 37.6758 34.5386 38.4925H43.1314Z" fill="white"/>
</svg>
