<svg width="65" height="64" viewBox="0 0 65 64" fill="none" xmlns="http://www.w3.org/2000/svg">
<path d="M32.0064 59.0192C17.0832 59.0192 4.98917 46.9212 4.98917 31.998C4.98917 17.0788 17.0832 4.98081 32.0064 4.98081C46.9296 4.98081 59.0276 17.0788 59.0276 31.998C59.0276 46.9212 46.9296 59.0192 32.0064 59.0192ZM32.0064 4C16.5401 4 4.00446 16.5356 4.00446 31.998C4.00446 47.4644 16.5401 60 32.0064 60C47.4727 60 60.0084 47.4644 60.0084 31.998C60.0084 16.5356 47.4727 4 32.0064 4Z" fill="black"/>
<path d="M32.0064 56.5613C18.4391 56.5613 7.44312 45.5652 7.44312 32.0019C7.44312 18.4347 18.4391 7.43866 32.0064 7.43866C45.5736 7.43866 56.5696 18.4347 56.5696 32.0019C56.5696 45.5652 45.5736 56.5613 32.0064 56.5613ZM32.0064 4.98077C17.0832 4.98077 4.98914 17.0787 4.98914 32.0019C4.98914 46.9212 17.0832 59.0192 32.0064 59.0192C46.9296 59.0192 59.0275 46.9212 59.0275 32.0019C59.0275 17.0787 46.9296 4.98077 32.0064 4.98077Z" fill="white"/>
<path d="M32.0064 7.43872C18.4392 7.43872 7.44318 18.4347 7.44318 31.9981C7.44318 45.5653 18.4392 56.5613 32.0064 56.5613C45.5737 56.5613 56.5697 45.5653 56.5697 31.9981C56.5697 18.4347 45.5737 7.43872 32.0064 7.43872Z" fill="#EE7817"/>
<path d="M18.111 21.8656V41.517H14.5316V30.2787C14.5316 28.4148 14.5316 27.8638 12.9256 27.8638H9.72522V25.6208H10.1043C11.9369 25.5896 14.4144 25.5622 15.1998 21.8656H18.111Z" fill="white"/>
<path d="M34.7027 38.4925V41.5209H21.3386V38.6957C23.8434 36.9763 26.3169 34.62 27.4814 33.4243C28.5599 32.3185 30.3652 30.4233 30.3652 27.8325C30.3652 26.3203 29.6071 24.894 27.7745 24.894C24.8906 24.894 24.9766 28.0357 25.0079 29.4346L21.3386 29.1142C21.3386 26.3476 22.2413 24.5736 22.9994 23.667C24.074 22.4166 25.9379 21.5452 28.0636 21.5452C31.7915 21.5452 34.3822 23.9601 34.3822 27.6879C34.3822 30.8609 32.4323 33.1312 30.2792 35.085C29.8416 35.4641 27.2196 37.6758 26.1137 38.4925H34.7027Z" fill="white"/>
<path d="M48.2894 37.6914H40.9392L39.8021 41.5209H35.8906L42.4944 21.9438H46.6521L53.3342 41.5209H49.4226L48.2894 37.6914ZM47.3164 34.5028L44.628 25.4919L41.9122 34.5028H47.3164Z" fill="white"/>
</svg>
