<svg width="65" height="64" viewBox="0 0 65 64" fill="none" xmlns="http://www.w3.org/2000/svg">
<path d="M32.002 59.0192C17.0788 59.0192 4.98081 46.9212 4.98081 31.998C4.98081 17.0788 17.0788 4.98081 32.002 4.98081C46.9212 4.98081 59.0192 17.0788 59.0192 31.998C59.0192 46.9212 46.9212 59.0192 32.002 59.0192ZM32.002 4C16.5356 4 4 16.5356 4 31.998C4 47.4644 16.5356 60 32.002 60C47.4683 60 60.0039 47.4644 60.0039 31.998C60.0039 16.5356 47.4683 4 32.002 4Z" fill="black"/>
<path d="M32.002 56.5613C18.4347 56.5613 7.43872 45.5653 7.43872 32.002C7.43872 18.4347 18.4347 7.43872 32.002 7.43872C45.5653 7.43872 56.5652 18.4347 56.5652 32.002C56.5652 45.5653 45.5653 56.5613 32.002 56.5613ZM32.002 4.98083C17.0788 4.98083 4.98083 17.0788 4.98083 32.002C4.98083 46.9212 17.0788 59.0192 32.002 59.0192C46.9212 59.0192 59.0192 46.9212 59.0192 32.002C59.0192 17.0788 46.9212 4.98083 32.002 4.98083Z" fill="white"/>
<path d="M32.002 7.43872C18.4347 7.43872 7.43872 18.4347 7.43872 31.9981C7.43872 45.5653 18.4347 56.5613 32.002 56.5613C45.5653 56.5613 56.5652 45.5653 56.5652 31.9981C56.5652 18.4347 45.5653 7.43872 32.002 7.43872Z" fill="#EB5791"/>
<path d="M26.5274 21.8617V41.517H22.9441V30.2787C22.9441 28.4148 22.9441 27.8638 21.342 27.8638H18.1417V25.6208H18.5168C20.3534 25.5896 22.8269 25.5622 23.6162 21.8617H26.5274Z" fill="white"/>
<path d="M41.7788 25.0972H34.1198L33.4516 29.4346C34.323 28.5593 35.722 27.9771 37.2381 27.9771C40.7315 27.9771 43.205 30.5718 43.205 34.5302C43.205 38.5785 40.5557 41.7827 35.8978 41.7827C34.5887 41.7827 33.3071 41.5482 32.1699 40.966C29.4307 39.5085 29.2275 36.9763 29.1415 36.0151L33.2172 35.722C33.307 37.7344 34.5575 38.6371 36.0424 38.6371C36.7145 38.6371 37.2928 38.4925 37.7617 38.1721C38.6331 37.5859 39.2466 36.2182 39.2466 34.6747C39.2466 32.2286 37.7305 30.9781 35.9838 30.9781C34.6435 30.9781 33.5103 31.5877 33.0413 32.8108L29.755 32.6076L31.1501 21.8031H42.0718L41.7788 25.0972Z" fill="white"/>
</svg>
