<svg width="65" height="64" viewBox="0 0 65 64" fill="none" xmlns="http://www.w3.org/2000/svg">
<path d="M58.5399 53.9367C57.7532 55.3079 56.3365 56.1243 54.7597 56.1243H9.26111C7.68078 56.1243 6.26755 55.3079 5.47739 53.9367C4.69071 52.5656 4.69071 50.9292 5.47739 49.5581L28.2284 10.0633C29.0186 8.69213 30.4318 7.87572 32.0086 7.87572C33.589 7.87572 35.0022 8.69213 35.7924 10.0633L58.5399 49.5581C59.3301 50.9258 59.3301 52.5656 58.5399 53.9367ZM59.2987 49.1185L36.5512 9.62717C35.6009 7.98039 33.9057 7 32.0086 7C30.115 7 28.4164 7.9804 27.4696 9.62368L4.71857 49.1185C3.77177 50.7653 3.77177 52.7295 4.72213 54.3728C5.66893 56.0196 7.36759 57 9.26119 57H54.7597C56.6533 57 58.352 56.0196 59.2988 54.3728C60.2456 52.7295 60.2456 50.7653 59.2988 49.1185" fill="black"/>
<path d="M54.7596 53.9297H9.26102C7.58324 53.9297 6.5355 52.112 7.37439 50.6536L30.1219 11.1623C30.5431 10.4331 31.2741 10.0703 32.0086 10.0703C32.743 10.0703 33.4775 10.4331 33.8987 11.1623L56.6462 50.6536C57.4851 52.112 56.4374 53.9297 54.7596 53.9297ZM58.5398 49.5581L35.7923 10.0633C35.0021 8.69214 33.5889 7.87573 32.0086 7.87573C30.4317 7.87573 29.015 8.69214 28.2248 10.0633L5.47731 49.5581C4.68715 50.9293 4.68715 52.5656 5.48087 53.9367C6.26756 55.3079 7.68427 56.1243 9.2611 56.1243H54.7597C56.3365 56.1243 57.7497 55.3079 58.5399 53.9367C59.3301 52.5656 59.3301 50.9258 58.5399 49.5581" fill="white"/>
<path d="M33.8988 11.1623C33.4776 10.4331 32.7431 10.0703 32.0087 10.0703C31.2777 10.0703 30.5432 10.4331 30.122 11.1623L7.37448 50.6536C6.53559 52.112 7.58333 53.9297 9.26111 53.9297H54.7597C56.4375 53.9297 57.4852 52.112 56.6463 50.6536L33.8988 11.1623Z" fill="#FAB800"/>
<path d="M18.837 32.8112H24.4482C25.3672 32.8112 26.3349 32.8112 27.3025 33.0728C28.9281 33.5229 31.215 34.9883 31.215 38.3656C31.215 40.588 30.1777 42.9744 27.2085 43.6373C26.2861 43.8502 25.4159 43.8502 24.3995 43.8502H21.9733V49.4988H18.837V32.8112ZM21.9733 35.4837V41.2753H24.2115C24.8729 41.2753 25.4368 41.2753 25.9798 41.1323C27.9152 40.6578 28.03 38.8854 28.03 38.2958C28.03 37.0677 27.4905 36.4292 27.2085 36.1675C26.4288 35.5081 25.3428 35.4837 24.3299 35.4837H21.9733Z" fill="white"/>
<path d="M47.0948 40.3752V49.4988H44.4284V48.0788C42.9456 49.5441 41.2713 49.9244 39.8789 49.9244C34.7411 49.9244 32.0295 45.811 32.0295 41.3207C32.0295 36.0733 35.493 32.389 40.0669 32.389C43.5338 32.389 46.0818 34.5138 47.0948 37.3049L44.1221 38.5086C43.8158 37.5875 42.9212 35.2011 40.0913 35.2011C36.955 35.2011 35.4234 37.9399 35.4234 41.2265C35.4234 44.8899 37.4284 46.9937 40.1365 46.9937C41.8839 46.9937 43.9585 46.0726 44.2405 43.1175H40.0913V40.3752H47.0948Z" fill="white"/>
</svg>
