<svg width="65" height="64" viewBox="0 0 65 64" fill="none" xmlns="http://www.w3.org/2000/svg">
<path d="M58.54 53.9367C57.7498 55.3079 56.3366 56.1243 54.7563 56.1243H9.26152C7.68121 56.1243 6.26799 55.3079 5.47783 53.9367C4.68768 52.5656 4.68768 50.9292 5.47783 49.5581L28.2252 10.0633C29.0154 8.69213 30.4286 7.87572 32.0089 7.87572C33.5892 7.87572 35.0024 8.69213 35.7926 10.0633L58.54 49.5581C59.3301 50.9258 59.3301 52.5656 58.54 53.9367ZM59.2988 49.1185L36.5479 9.62717C35.6012 7.98039 33.906 7 32.0089 7C30.1153 7 28.4167 7.9804 27.4699 9.62368L4.71901 49.1185C3.77221 50.7653 3.77221 52.7295 4.71901 54.3728C5.66928 56.0196 7.36446 57 9.26152 57H54.7563C56.6534 57 58.3485 56.0196 59.2988 54.3728C60.2456 52.7295 60.2456 50.7653 59.2988 49.1185Z" fill="black"/>
<path d="M54.7563 53.9297H9.26156C7.58379 53.9297 6.53257 52.112 7.37145 50.6536L30.1223 11.1623C30.54 10.4331 31.2745 10.0703 32.0089 10.0703C32.7434 10.0703 33.4779 10.4331 33.8956 11.1623L56.643 50.6536C57.4853 52.112 56.4341 53.9297 54.7563 53.9297ZM58.54 49.5581L35.7926 10.0633C35.0025 8.69214 33.5893 7.87573 32.0089 7.87573C30.4286 7.87573 29.0154 8.69214 28.2253 10.0633L5.47787 49.5581C4.68772 50.9293 4.68772 52.5656 5.47787 53.9367C6.26802 55.3079 7.68125 56.1243 9.26156 56.1243H54.7563C56.3366 56.1243 57.7499 55.3079 58.54 53.9367C59.3302 52.5656 59.3302 50.9258 58.54 49.5581Z" fill="white"/>
<path d="M33.8955 11.1623C33.4778 10.4331 32.7434 10.0703 32.0089 10.0703C31.2744 10.0703 30.54 10.4331 30.1223 11.1623L7.3714 50.6536C6.53252 52.112 7.58374 53.9297 9.26151 53.9297H54.7563C56.4341 53.9297 57.4853 52.112 56.6429 50.6536L33.8955 11.1623Z" fill="#2EA635"/>
<path d="M39.0368 31.0911V42.1057C39.0124 44.0874 39.0124 45.7237 37.1571 47.3077C35.3819 48.8673 33.0845 49.0138 31.8975 49.0138C30.8359 49.0138 29.7986 48.8917 28.81 48.5428C26.7354 47.8276 25.6216 46.3169 25.2282 45.005C25.0054 44.2375 25.0054 43.6932 24.9811 41.5126V31.0911H28.2426V41.8336C28.2426 42.5767 28.2183 43.2954 28.4654 43.9653C29.1303 45.647 30.9612 45.8459 31.995 45.8459C32.5171 45.8459 33.8259 45.8215 34.7866 44.9806C35.7508 44.1118 35.7508 43.121 35.7508 41.6626V31.0911H39.0368Z" fill="white"/>
</svg>
