<svg width="65" height="64" viewBox="0 0 65 64" fill="none" xmlns="http://www.w3.org/2000/svg">
<path d="M32.0089 59.0154C17.0868 59.0154 4.99356 46.9182 4.99356 32C4.99356 17.0779 17.0868 4.98074 32.0089 4.98074C46.931 4.98074 59.0282 17.0779 59.0282 32C59.0282 46.9182 46.931 59.0154 32.0089 59.0154ZM32.0089 4C16.5437 4 4.00891 16.5348 4.00891 32C4.00891 47.4614 16.5437 60 32.0089 60C47.4742 60 60.0089 47.4614 60.0089 32C60.0089 16.5348 47.4742 4 32.0089 4Z" fill="black"/>
<path d="M32.0089 56.5615C18.4426 56.5615 7.44734 45.5623 7.44734 32C7.44734 18.4337 18.4426 7.43843 32.0089 7.43843C45.5752 7.43843 56.5704 18.4337 56.5704 32C56.5704 45.5623 45.5752 56.5615 32.0089 56.5615ZM32.0089 4.98071C17.0867 4.98071 4.99353 17.0778 4.99353 32C4.99353 46.9221 17.0867 59.0153 32.0089 59.0153C46.931 59.0153 59.0281 46.9221 59.0281 32C59.0281 17.0778 46.931 4.98071 32.0089 4.98071Z" fill="white"/>
<path d="M32.0089 7.43848C18.4426 7.43848 7.44733 18.4337 7.44733 32C7.44733 45.5624 18.4426 56.5616 32.0089 56.5616C45.5752 56.5616 56.5704 45.5624 56.5704 32C56.5704 18.4337 45.5752 7.43848 32.0089 7.43848Z" fill="#D70723"/>
<path d="M26.5347 21.8643V41.5183H22.9556V30.2769C22.9556 28.4131 22.9556 27.8621 21.3496 27.8621H18.1495V25.6193H18.5285C20.3611 25.5919 22.8383 25.5607 23.6237 21.8643H26.5347Z" fill="white"/>
<path d="M43.5629 35.8683C43.5629 39.4513 40.4761 41.7801 36.1976 41.7801C31.712 41.7801 28.9456 39.2755 28.9456 35.8683C28.9456 32.7815 31.1884 31.703 32.1769 31.2381C30.0826 30.2495 29.645 28.1239 29.645 26.9595C29.645 23.904 32.1769 21.5439 36.4008 21.5439C40.4488 21.5439 43.0979 23.7281 43.0979 27.1314C43.0979 28.8507 42.3985 30.3355 40.5347 31.2381C42.8049 32.3751 43.5629 34.0631 43.5629 35.8683ZM33.0522 35.751C33.0522 37.4117 34.2166 38.5487 36.3695 38.5487C38.2646 38.5487 39.6634 37.5562 39.6634 35.7237C39.6634 35.372 39.6048 32.926 36.3695 32.926C33.2554 32.926 33.0522 35.1415 33.0522 35.751ZM33.3726 27.3971C33.3726 28.2685 33.7516 29.9877 36.4008 29.9877C38.7022 29.9877 39.2844 28.5029 39.2844 27.3971C39.2844 25.1543 37.5065 24.748 36.3695 24.748C33.8962 24.7168 33.3726 26.3187 33.3726 27.3971Z" fill="white"/>
</svg>
