<svg width="65" height="64" viewBox="0 0 65 64" fill="none" xmlns="http://www.w3.org/2000/svg">
<path d="M58.5393 53.8456C57.7507 55.2587 56.3367 56.0974 54.7581 56.0974H9.26051C7.68108 56.0974 6.26862 55.2587 5.47933 53.8456C4.68782 52.434 4.68782 50.7489 5.47933 49.3373L28.2248 10.1541C29.0134 8.74169 30.4266 7.90227 32.006 7.90227C33.5899 7.90227 35.003 8.74186 35.7923 10.1541L58.5391 49.3373C59.3293 50.746 59.3293 52.434 58.5393 53.8456ZM59.2992 48.8841L36.5473 9.70611C35.6013 8.00878 33.9054 7 32.006 7C30.1146 7 28.4159 8.00878 27.4683 9.70149L4.72009 48.8841C3.77185 50.5797 3.77185 52.6034 4.72009 54.2946C5.66902 55.9904 7.36335 57 9.26069 57H54.7581C56.6533 57 58.3474 55.9904 59.2994 54.2946C60.2454 52.6034 60.2454 50.5797 59.2992 48.8841Z" fill="#000100"/>
<path d="M54.7708 53.8391H9.27404C7.598 53.8391 6.54648 51.968 7.38425 50.4658L30.1343 11.2872C30.5509 10.536 31.2868 10.162 32.0192 10.162C32.7572 10.162 33.4924 10.536 33.9083 11.2872L56.6527 50.4658C57.4984 51.9681 56.4482 53.8391 54.7708 53.8391ZM58.5521 49.3384L35.8054 10.1551C35.0161 8.74274 33.603 7.90332 32.0192 7.90332C30.4398 7.90332 29.0266 8.74291 28.2381 10.1551L5.49292 49.3384C4.70142 50.7499 4.70142 52.4351 5.49292 53.8466C6.28236 55.2597 7.69463 56.0984 9.27404 56.0984H54.7708C56.3494 56.0984 57.7633 55.2597 58.5519 53.8466C59.3421 52.4351 59.3421 50.747 58.5521 49.3384Z" fill="white"/>
<path d="M33.9083 11.286C33.4924 10.5348 32.7573 10.1608 32.0192 10.1608C31.287 10.1608 30.5511 10.5348 30.1344 11.286L7.38429 50.465C6.5467 51.9672 7.59804 53.8383 9.27409 53.8383H54.7708C56.4483 53.8383 57.4984 51.9672 56.6526 50.465L33.9083 11.286Z" fill="#1D1D1B"/>
<path d="M25.6682 30.3286H38.1857V33.6633H29.3484V37.5277H37.4587V40.6118H29.3484V45.0325H38.3724V48.3673H25.6682V30.3286Z" fill="white"/>
</svg>
