<svg width="65" height="64" viewBox="0 0 65 64" fill="none" xmlns="http://www.w3.org/2000/svg">
<path d="M56.3907 53.8069C56.3907 55.2291 55.238 56.3779 53.8196 56.3779H10.202C8.77973 56.3779 7.63097 55.2291 7.63097 53.8069V10.1892C7.63097 8.77088 8.77973 7.61821 10.202 7.61821H53.8196C55.238 7.61821 56.3907 8.77088 56.3907 10.1892V53.8069ZM53.8196 5.03156H10.202C7.35746 5.03156 5.04431 7.3447 5.04431 10.1892V53.8069C5.04431 56.6514 7.35746 58.9646 10.202 58.9646H53.8196C56.6603 58.9646 58.9773 56.6514 58.9773 53.8069V10.1892C58.9773 7.3447 56.6603 5.03156 53.8196 5.03156Z" fill="white"/>
<path d="M58.9774 53.8069C58.9774 56.6514 56.6603 58.9646 53.8197 58.9646H10.202C7.3575 58.9646 5.04436 56.6514 5.04436 53.8069V10.1892C5.04436 7.34468 7.3575 5.03154 10.202 5.03154H53.8197C56.6603 5.03154 58.9774 7.34468 58.9774 10.1892V53.8069ZM53.8197 4H10.202C6.78703 4 4.00891 6.77812 4.00891 10.1892V53.8069C4.00891 57.2219 6.78703 60 10.202 60H53.8197C57.2308 60 60.0089 57.2219 60.0089 53.8069V10.1892C60.0089 6.77812 57.2308 4 53.8197 4Z" fill="black"/>
<path d="M53.8196 7.61816H10.202C8.77974 7.61816 7.63098 8.77083 7.63098 10.1892V53.8068C7.63098 55.2291 8.77974 56.3779 10.202 56.3779H53.8196C55.238 56.3779 56.3907 55.2291 56.3907 53.8068V10.1892C56.3907 8.77083 55.238 7.61816 53.8196 7.61816Z" fill="#007DC7"/>
<path d="M10.9366 21.4111H17.501C20.2478 21.4423 22.0843 21.4423 23.8934 22.8998C25.1789 23.9509 26.1714 25.5841 26.1714 27.9793C26.1714 31.9179 23.2799 33.2894 22.1116 33.6411L26.6949 42.0184H22.2875L18.2043 34.3717H14.758V42.0184H10.9366V21.4111ZM14.758 24.7402V31.1912H16.1021C17.415 31.1912 17.9112 31.16 18.6419 31.1326C19.4859 31.1014 22.2601 30.9567 22.2601 27.952C22.2601 27.5144 22.2289 25.9944 20.6268 25.1778C19.8063 24.7714 18.8138 24.7402 16.5398 24.7402H14.758Z" fill="white"/>
<path d="M36.4477 21.329V42.0184H32.6771V30.187C32.6771 28.2255 32.6771 27.6433 30.993 27.6433H27.621V25.2833H28.0195C29.9497 25.2521 32.5559 25.2246 33.3843 21.329H36.4477Z" fill="white"/>
<path d="M54.1127 36.0714C54.1127 39.842 50.8618 42.2919 46.3566 42.2919C41.6366 42.2919 38.7256 39.6584 38.7256 36.0714C38.7256 32.8205 41.0856 31.6874 42.1289 31.199C39.9212 30.1557 39.4602 27.9207 39.4602 26.6938C39.4602 23.4742 42.1289 20.993 46.5715 20.993C50.8305 20.993 53.6204 23.2905 53.6204 26.8775C53.6204 28.6866 52.8858 30.2495 50.9243 31.199C53.3156 32.3946 54.1127 34.1725 54.1127 36.0714ZM43.0471 35.9503C43.0471 37.6969 44.274 38.8925 46.5403 38.8925C48.533 38.8925 50.0061 37.8493 50.0061 35.9191C50.0061 35.5518 49.9436 32.9768 46.5403 32.9768C43.262 32.9768 43.0471 35.3056 43.0471 35.9503ZM43.387 27.1549C43.387 28.0731 43.7817 29.8822 46.5715 29.8822C48.9941 29.8822 49.6075 28.3154 49.6075 27.1549C49.6075 24.7949 47.7359 24.365 46.5403 24.365C43.938 24.3338 43.387 26.0179 43.387 27.1549Z" fill="white"/>
</svg>
