<svg width="65" height="64" viewBox="0 0 65 64" fill="none" xmlns="http://www.w3.org/2000/svg">
<path d="M32.0089 59.0154C17.0868 59.0154 4.99356 46.9182 4.99356 32C4.99356 17.0779 17.0868 4.98074 32.0089 4.98074C46.931 4.98074 59.0282 17.0779 59.0282 32C59.0282 46.9182 46.931 59.0154 32.0089 59.0154ZM32.0089 4C16.5437 4 4.00891 16.5348 4.00891 32C4.00891 47.4614 16.5437 60 32.0089 60C47.4742 60 60.0089 47.4614 60.0089 32C60.0089 16.5348 47.4742 4 32.0089 4Z" fill="black"/>
<path d="M32.0089 56.5615C18.4426 56.5615 7.44734 45.5623 7.44734 32C7.44734 18.4337 18.4426 7.43843 32.0089 7.43843C45.5752 7.43843 56.5704 18.4337 56.5704 32C56.5704 45.5623 45.5752 56.5615 32.0089 56.5615ZM32.0089 4.98071C17.0867 4.98071 4.99353 17.0778 4.99353 32C4.99353 46.9221 17.0867 59.0153 32.0089 59.0153C46.931 59.0153 59.0281 46.9221 59.0281 32C59.0281 17.0778 46.931 4.98071 32.0089 4.98071Z" fill="white"/>
<path d="M32.0089 7.43848C18.4426 7.43848 7.44733 18.4337 7.44733 32C7.44733 45.5624 18.4426 56.5616 32.0089 56.5616C45.5752 56.5616 56.5704 45.5624 56.5704 32C56.5704 18.4337 45.5752 7.43848 32.0089 7.43848Z" fill="#6F6F6F"/>
<path d="M18.7865 26.9193V40.7655H15.7273V26.9193H11.0089V24.2462H23.5153V26.9193H18.7865Z" fill="white"/>
<path d="M37.7021 36.0524C37.7021 37.5531 37.2044 38.7138 36.2088 39.5345C35.2133 40.3552 33.8306 40.7655 32.0608 40.7655H24.7498V24.2462H31.4386C33.2222 24.2462 34.5703 24.5979 35.4829 25.3014C36.4024 25.997 36.8621 27.0287 36.8621 28.3966C36.8621 29.3345 36.6305 30.1278 36.1673 30.7766C35.7111 31.4175 35.0128 31.8513 34.0726 32.0779C35.2548 32.2343 36.1535 32.6563 36.7688 33.3441C37.391 34.0241 37.7021 34.9269 37.7021 36.0524ZM33.7822 28.8655C33.7822 28.123 33.5714 27.5954 33.1496 27.2828C32.7348 26.9701 32.1161 26.8138 31.2934 26.8138H27.809V30.9055H31.3141C32.1783 30.9055 32.804 30.7375 33.1911 30.4014C33.5852 30.0575 33.7822 29.5455 33.7822 28.8655ZM34.6326 35.7828C34.6326 34.2352 33.6509 33.4614 31.6874 33.4614H27.809V38.1979H31.8015C32.7832 38.1979 33.4988 37.9986 33.9481 37.6C34.4044 37.1936 34.6326 36.5878 34.6326 35.7828Z" fill="white"/>
<path d="M46.4964 38.28C48.3423 38.28 49.6248 37.2326 50.3438 35.1379L53.0089 36.2752C52.4351 37.8697 51.5917 39.0577 50.4786 39.8393C49.3724 40.6131 48.0451 41 46.4964 41C44.1459 41 42.3276 40.2497 41.0417 38.749C39.7628 37.2405 39.1233 35.134 39.1233 32.4297C39.1233 29.7175 39.742 27.6345 40.9795 26.1807C42.217 24.7269 44.0111 24 46.3616 24C48.0762 24 49.4727 24.3908 50.5512 25.1724C51.6297 25.9462 52.3867 27.0874 52.8223 28.5959L50.126 29.4283C49.8979 28.5998 49.4485 27.9432 48.7779 27.4586C48.1142 26.9662 47.3295 26.72 46.4239 26.72C45.0412 26.72 43.9903 27.2046 43.2713 28.1738C42.5592 29.143 42.2032 30.5616 42.2032 32.4297C42.2032 34.329 42.5696 35.7789 43.3024 36.7793C44.0422 37.7798 45.1068 38.28 46.4964 38.28Z" fill="white"/>
</svg>
